<svg width="871" height="828" viewBox="0 0 871 828" fill="none" xmlns="http://www.w3.org/2000/svg">
<path d="M8.38505 610.733C655.975 -523.28 900.723 722.836 596.209 721.161" stroke="#27789B"/>
<path d="M8.385 610.73C594.733 -364.585 889.321 748.825 590.293 734.071" stroke="#27789B"/>
<path d="M8.38441 610.716C621.068 -433.206 893.71 737.376 592.487 728.339" stroke="#27789B"/>
<path d="M8.38397 610.76C542.063 -227.349 880.542 771.722 585.903 745.535" stroke="#27789B"/>
<path d="M8.38499 610.723C607.901 -398.895 891.516 743.1 591.391 731.206" stroke="white"/>
<path d="M8.38379 610.763C640.821 -484.618 897.002 728.846 594.133 724.098" stroke="#DADADA"/>
<path d="M8.38434 610.748C561.814 -278.813 883.835 763.135 587.549 741.235" stroke="#3B809D"/>
<path d="M23.8034 587.886C687.415 -593.918 910.228 688.729 607.122 692.089" stroke="#27789B"/>
<path d="M9.66577 622.047C652.629 -561.892 899.589 711.379 595.986 718.48" stroke="#187BA5"/>
<path d="M17.4316 600.846C507.617 -165.906 881.892 759.71 591.021 732.045M9.66692 622.049C499.852 -144.703 874.127 780.912 583.256 753.248" stroke="#4B9FC4"/>
<path d="M9.66579 622.073C563.509 -318.508 884.735 751.965 588.559 738.786" stroke="#EEF1F2"/>
<path d="M39.8583 575.367C653.875 -540.316 910.19 670.667 613.716 673.808" stroke="#EEF1F2"/>
<path d="M33.4401 562.763C604.878 -378.92 904.503 703.626 609.077 686.976" stroke="#27789B"/>
<path d="M12.3197 610.012C659.909 -524.002 904.657 722.115 600.144 720.44" stroke="#27789B"/>
<path d="M12.319 610.059C598.667 -365.256 893.255 748.153 594.227 733.4" stroke="#27789B"/>
<path d="M12.319 610.047C625.002 -433.875 897.645 736.707 596.422 727.67" stroke="#27789B"/>
<path d="M12.32 610.037C545.999 -228.072 884.478 770.999 589.839 744.812" stroke="#27789B"/>
<path d="M12.3181 610.037C589.043 -340.21 891.651 752.31 593.424 735.467" stroke="#27789B"/>
<path d="M12.319 610.053C611.834 -399.565 895.45 742.431 595.325 730.536" stroke="white"/>
<path d="M12.3178 610.04C644.755 -485.341 900.936 728.123 598.067 723.375" stroke="#DADADA"/>
<path d="M12.3205 610.026C565.75 -279.535 887.771 762.413 591.486 740.513" stroke="#3B809D"/>
<path d="M12.3199 610.013C557.099 -257.011 886.328 766.156 590.764 742.378" stroke="#3B809D"/>
<path d="M27.737 587.162C691.349 -594.642 914.162 688.005 611.055 691.365" stroke="#27789B"/>
<path d="M13.603 621.32C656.567 -562.619 903.526 710.652 599.923 717.753" stroke="#187BA5"/>
<path d="M21.3681 600.121C511.553 -166.631 885.828 758.985 594.957 731.32M13.6034 621.324C503.789 -145.428 878.063 780.188 587.192 752.523" stroke="#4B9FC4"/>
<path d="M23.871 593.285C612.598 -442.551 904.755 707.301 605.672 702.06M13.6022 621.326C602.329 -414.51 894.486 735.342 595.403 730.101" stroke="#4B9FC4"/>
<path d="M13.6027 621.347C567.446 -319.233 888.672 751.239 592.496 738.06" stroke="#EEF1F2"/>
<path d="M13.6037 621.349C513.08 -170.772 879.612 775.985 587.967 750.434" stroke="#EEF1F2"/>
<path d="M43.7956 574.698C657.813 -540.984 914.127 669.999 617.653 673.139" stroke="#EEF1F2"/>
<path d="M37.3748 562.042C608.813 -379.641 908.438 702.906 613.012 686.256" stroke="#27789B"/>
</svg>
