<svg width="417" height="664" viewBox="0 0 417 664" fill="none" xmlns="http://www.w3.org/2000/svg">
<mask id="path-1-inside-1_132_152" fill="white">
<path d="M416.249 516.487C416.249 446.599 394.322 379.573 355.291 330.155C316.26 280.737 263.323 252.974 208.125 252.974C152.927 252.974 99.9893 280.737 60.9583 330.155C21.9274 379.573 8.33469e-06 446.599 0 516.487L208.125 516.487H416.249Z"/>
</mask>
<path d="M416.249 516.487C416.249 446.599 394.322 379.573 355.291 330.155C316.26 280.737 263.323 252.974 208.125 252.974C152.927 252.974 99.9893 280.737 60.9583 330.155C21.9274 379.573 8.33469e-06 446.599 0 516.487L208.125 516.487H416.249Z" stroke="#4B9FC4" stroke-width="74" mask="url(#path-1-inside-1_132_152)"/>
<path d="M294.687 105.405C294.687 154.166 255.721 193.311 208.125 193.311C160.528 193.311 121.562 154.166 121.562 105.405C121.562 56.6443 160.528 17.5 208.125 17.5C255.721 17.5 294.687 56.6443 294.687 105.405Z" stroke="#4B9FC4" stroke-width="35"/>
</svg>
