<svg width="666" height="666" viewBox="0 0 666 666" fill="none" xmlns="http://www.w3.org/2000/svg">
<path d="M161.464 280.465C179.958 277.981 198.451 284.329 211.562 297.44L244.685 330.563L276.014 299.373L230.746 254.243C223.707 247.204 223.707 235.749 230.746 228.711C237.784 221.672 249.239 221.672 256.278 228.711L301.546 273.978L332.874 242.788L299.614 209.527C286.503 196.416 280.154 177.784 282.638 159.429C288.159 117.473 274.772 73.5856 242.615 41.2909C209.768 8.44411 164.776 -4.80501 122.131 1.54352C115.368 2.50961 112.608 10.9283 117.438 15.7587L160.084 58.4043C180.372 78.692 180.372 111.539 160.084 131.688L133.862 157.911C113.574 178.198 80.7272 178.198 60.5775 157.911L17.7939 115.265C12.9635 110.435 4.68277 113.195 3.57868 119.958C-2.76985 162.603 10.4793 207.595 43.326 240.442C75.6208 272.598 119.508 285.986 161.464 280.465Z" fill="#4B9FC4"/>
<path d="M426.722 336.635L395.394 367.826L581.433 553.866C588.472 560.904 588.472 572.359 581.433 579.398C574.395 586.436 562.94 586.436 555.901 579.398L369.862 393.358L338.533 424.549L530.231 616.247C554.521 640.537 593.854 640.399 618.145 616.109C642.435 591.819 642.435 552.485 618.283 528.195L426.722 336.635Z" fill="#4B9FC4"/>
<path d="M498.626 212.425H581.295L663.964 47.2248L622.699 5.95935L457.361 88.4903V171.159L232.678 395.152L192.241 354.853L29.3869 517.707C-4.56401 551.657 -4.56401 606.586 29.3869 640.537C63.3377 674.488 118.266 674.488 152.217 640.537L315.071 477.683L273.805 436.418L498.626 212.425Z" fill="#4B9FC4"/>
</svg>
